<?xml version="1.0" standalone="no"?>
<!DOCTYPE svg PUBLIC "-//W3C//DTD SVG 20010904//EN"
 "http://www.w3.org/TR/2001/REC-SVG-20010904/DTD/svg10.dtd">
<svg version="1.0" xmlns="http://www.w3.org/2000/svg"
 width="2987.000000pt" height="1590.000000pt" viewBox="0 0 2987.000000 1590.000000"
 preserveAspectRatio="xMidYMid meet">

<g transform="translate(0.000000,1590.000000) scale(0.100000,-0.100000)"
fill="#000000" stroke="none">
<path d="M22040 14535 l0 -1365 -1339 -2607 -1338 -2608 -605 -3 -604 -2 -767
782 -766 783 -1 1183 0 1182 -1440 0 -1440 0 0 -1263 0 -1263 -526 -442 -526
-442 -799 0 -799 0 0 -861 0 -861 -197 -279 -198 -279 -512 0 -513 0 0 -535 0
-535 540 0 540 0 0 483 1 482 203 285 203 285 705 3 705 2 617 -406 616 -407
0 -678 0 -679 760 0 760 0 0 760 0 760 -659 0 -658 0 -551 362 -552 363 3 674
2 675 539 453 539 453 1091 0 1091 0 762 -778 762 -777 0 -1187 1 -1188 1440
0 1440 0 0 1445 0 1445 -220 0 c-121 0 -220 2 -220 4 0 5 2310 4507 2327 4534
l13 22 1485 0 1485 0 0 1695 0 1695 -1700 0 -1700 0 0 -1365z"/>
<path d="M13325 3987 c-116 -39 -190 -102 -238 -205 -30 -63 -32 -74 -32 -177
0 -98 3 -116 27 -167 55 -117 162 -197 296 -220 189 -32 379 67 443 230 19 46
23 78 23 162 1 97 -1 110 -30 170 -39 82 -98 141 -182 182 -59 29 -76 33 -166
35 -64 2 -116 -2 -141 -10z"/>
<path d="M0 2035 l0 -1945 1460 0 1460 0 0 360 0 360 -1095 0 -1095 0 0 440 0
440 1055 0 1055 0 0 345 0 345 -1055 0 -1055 0 0 445 0 445 1093 2 1092 3 3
353 2 352 -1460 0 -1460 0 0 -1945z"/>
<path d="M9850 2035 l0 -1945 370 0 370 0 0 720 0 720 975 0 975 0 0 340 0
340 -975 0 -975 0 0 530 0 530 1030 0 1030 0 0 355 0 355 -1400 0 -1400 0 0
-1945z"/>
<path d="M28312 2909 c-57 -5 -156 -20 -220 -35 -548 -122 -923 -502 -1044
-1057 -19 -89 -22 -132 -23 -337 0 -187 4 -253 18 -325 130 -653 565 -1045
1252 -1126 159 -19 452 -6 605 26 302 63 567 188 750 354 l55 50 -215 215
-215 215 -60 -45 c-100 -77 -238 -139 -389 -174 -503 -118 -965 67 -1081 433
-14 43 -25 87 -25 98 0 19 16 19 1069 19 l1068 0 7 46 c11 83 6 376 -9 485
-74 562 -364 934 -845 1087 -123 39 -235 60 -390 72 -141 11 -163 11 -308 -1z
m288 -599 c127 -13 198 -32 298 -81 151 -74 258 -208 297 -371 8 -35 15 -66
15 -70 0 -5 -333 -8 -741 -8 -589 0 -740 3 -737 13 3 6 13 36 22 64 25 76 103
189 177 258 111 104 281 177 454 195 100 10 110 10 215 0z"/>
<path d="M25457 2900 c-420 -53 -759 -237 -975 -529 -243 -327 -331 -819 -232
-1298 84 -405 328 -727 686 -906 101 -51 256 -103 381 -128 164 -33 466 -38
628 -11 271 47 495 155 709 345 36 32 66 62 66 66 0 5 -101 106 -224 225
l-225 217 -62 -50 c-75 -61 -177 -112 -284 -143 -70 -20 -102 -23 -255 -23
-173 0 -176 1 -274 34 -123 43 -221 106 -307 199 -78 84 -127 173 -165 297
-25 82 -28 105 -28 255 -1 144 2 175 22 245 80 278 267 469 538 547 67 19 102
23 224 23 137 -1 150 -2 240 -33 106 -37 177 -74 259 -136 l54 -41 114 120
c63 66 159 168 214 227 l100 107 -78 66 c-192 165 -368 255 -598 306 -102 23
-410 34 -528 19z"/>
<path d="M18750 2889 c-333 -37 -627 -175 -838 -394 -177 -182 -281 -386 -342
-670 -28 -127 -39 -455 -21 -602 79 -641 444 -1055 1043 -1184 116 -25 400
-37 504 -20 298 46 576 205 702 399 l40 62 5 -33 c3 -17 11 -105 18 -194 l12
-163 319 0 318 0 0 1370 0 1370 -324 0 -323 0 -7 -122 c-4 -68 -9 -151 -12
-186 l-6 -63 -33 48 c-18 26 -59 74 -91 106 -222 221 -570 320 -964 276z m505
-623 c145 -39 295 -137 388 -251 60 -75 130 -215 158 -320 32 -118 32 -346 0
-465 -65 -242 -207 -424 -406 -520 -111 -54 -181 -70 -325 -77 -196 -9 -360
32 -504 127 -172 115 -284 283 -332 503 -26 117 -22 319 9 439 82 314 307 519
637 582 57 10 316 -2 375 -18z"/>
<path d="M7720 2880 c-354 -45 -637 -181 -858 -415 -179 -189 -297 -425 -354
-708 -32 -160 -32 -442 0 -604 118 -590 511 -984 1097 -1100 130 -26 461 -25
600 1 284 53 517 171 711 358 208 201 342 463 395 768 23 133 27 379 9 500
-72 471 -341 855 -739 1054 -99 51 -285 111 -401 131 -115 19 -357 27 -460 15z
m405 -644 c239 -77 418 -276 497 -551 32 -113 32 -351 0 -470 -68 -250 -225
-435 -439 -515 -174 -65 -382 -65 -557 0 -164 62 -290 178 -372 345 -58 119
-85 223 -91 365 -20 434 215 769 598 850 24 5 98 8 164 6 96 -3 136 -9 200
-30z"/>
<path d="M15795 2869 c-255 -34 -491 -152 -698 -348 -31 -30 -59 -52 -61 -50
-1 2 -11 74 -20 159 -9 85 -19 167 -22 183 l-6 27 -299 0 -299 0 0 -1375 0
-1375 335 0 334 0 4 783 c3 873 -1 817 76 982 97 205 270 346 481 391 153 33
360 2 486 -72 155 -91 269 -273 303 -485 7 -40 11 -345 11 -831 l0 -768 340 0
340 0 0 784 c0 847 -3 907 -54 1109 -119 467 -444 789 -879 872 -103 19 -283
26 -372 14z"/>
<path d="M22480 2869 c-227 -26 -455 -136 -671 -323 l-87 -75 -5 37 c-3 20
-13 103 -23 185 l-17 147 -303 0 -304 0 0 -1375 0 -1375 334 0 335 0 3 768 c4
746 4 769 25 843 94 335 329 538 643 556 338 20 583 -163 672 -500 22 -80 22
-97 25 -874 l4 -793 339 0 340 0 0 738 c0 763 -6 903 -41 1075 -132 652 -639
1038 -1269 966z"/>
<path d="M3223 2788 c13 -29 277 -650 587 -1381 l565 -1327 369 2 369 3 583
1375 582 1375 -366 3 c-201 1 -369 -1 -373 -5 -25 -29 -430 -1054 -594 -1505
-110 -301 -202 -544 -205 -540 -4 4 -102 268 -218 587 -134 365 -280 743 -395
1020 l-184 440 -371 3 -372 2 23 -52z"/>
<path d="M13110 1465 l0 -1375 340 0 340 0 0 1375 0 1375 -340 0 -340 0 0
-1375z"/>
</g>
</svg>
