<svg xmlns="http://www.w3.org/2000/svg" viewBox="0 0 300 52">
  <path d="M10.833 49.792H0V2.002h10.833v7.005C14.748 3.829 20.664 1 27.495 1c10.914 0 17.34
    7.338 17.34 18.681v30.111H33.993V21.778c0-7.257-3.834-11.1-9.735-11.1-8.082 0-13.413
    7.257-13.413 18.183l-.012 20.931zM51.9 25.936C51.9 11.014 61.5 1 75.732 1c14.232 0
    23.826 10.008 23.826 24.936 0 14.844-9.582 24.855-23.826 24.855S51.9 40.786 51.9
    25.936zm36.576 0c0-9.174-5.247-15.348-12.747-15.348S63 16.762 63 25.936c0 9.09 5.247
    15.261 12.747 15.261S88.5 35.023 88.5 25.936h-.024zM117.9
    49.792h-10.854V2.002h10.833v7.005C121.293 3.754 126.3 1 132.042 1c6.333 0 11.916 3.351
    14.499 9.426C150.453 4.252 156.705 1 163.2 1c9.165 0 15.582 6.507 15.582
    17.598v31.2h-10.824V21.184c0-6.921-3-10.593-8.499-10.593-7.248 0-11.331 6.6-11.331
    18.27v20.931h-10.83V21.184c0-7.173-3.168-10.593-8.25-10.593-6.993.009-11.148
    6.756-11.148 18.27v20.931zm70.884-47.79h10.833v47.79h-10.833V2.002zm18.339
    23.853C207.123 11.008 216.957 1 230.868 1c10.665 0 18.414 5.67 21.663 15.096l-10.08
    4.173c-1.332-6.258-5.334-9.669-11.331-9.669-7.833 0-12.9 6-12.9 15.261-.015 9.339 5.07
    15.339 12.981 15.339 5.916 0 9.918-3.42 11.256-9.675l9.993 4.173c-3.498 9.84-10.998
    15.102-21.414 15.102-14.088 0-23.913-10.014-23.913-24.945zm51.228
    11.343l9.831-4.5c.666 5.256 6.084 9 12.333 9 4.83 0 8.58-2.25 8.58-5.253
    0-8.1-28.743-4.671-28.743-21 0-9 7.908-14.178 18.747-14.178 10.665 0 18.579 5.1 20.496
    11.841l-10.344 4.5c-.336-3.918-4.5-7.257-10.416-7.257-4.332 0-7.665 1.827-7.665 4.422
    0 7.755 28.827 4.17 28.827 21.267 0 8.676-7.665 14.763-19.746
    14.763-11.901-.003-20.067-5.349-21.9-13.605z" fill="#FFF" fillRule="nonzero" />
</svg>