<svg data-v-fde0c5aa="" xmlns="http://www.w3.org/2000/svg" viewBox="0 0 300 300" class="iconAbove"><!----><defs data-v-fde0c5aa=""><!----></defs><rect data-v-fde0c5aa="" fill="#132554" x="0" y="0" width="300px" height="300px" class="logo-background-square"></rect><defs data-v-fde0c5aa=""><!----></defs><g data-v-fde0c5aa="" id="fa4301e1-05d3-4202-bc3e-361d48d5c5f4" fill="#ffffff" transform="matrix(3.6879432624113475,0,0,3.6879432624113475,18.782978675044173,170.19290723868298)"><path d="M3.95 13.93L3.95 13.93Q3.11 13.93 2.36 13.64L2.36 13.64L2.36 13.64Q1.61 13.36 1.04 12.63L1.04 12.63L1.04 12.63Q0.48 11.90 0.33 10.66L0.33 10.66L2.26 9.97L2.26 9.97Q2.41 10.96 2.84 11.47L2.84 11.47L2.84 11.47Q3.28 11.97 3.91 11.97L3.91 11.97L3.91 11.97Q4.40 11.97 4.68 11.67L4.68 11.67L4.68 11.67Q4.96 11.36 4.96 10.75L4.96 10.75L4.96 10.75Q4.96 10.30 4.77 10.00L4.77 10.00L4.77 10.00Q4.58 9.69 4.27 9.47L4.27 9.47L4.27 9.47Q3.96 9.26 3.35 8.92L3.35 8.92L3.35 8.92Q3.27 8.87 3.20 8.84L3.20 8.84L3.20 8.84Q3.12 8.80 3.07 8.76L3.07 8.76L3.07 8.76Q2.30 8.33 1.83 8.00L1.83 8.00L1.83 8.00Q1.35 7.66 0.99 7.10L0.99 7.10L0.99 7.10Q0.64 6.54 0.64 5.74L0.64 5.74L0.64 5.74Q0.64 4.25 1.42 3.46L1.42 3.46L1.42 3.46Q2.20 2.67 3.79 2.67L3.79 2.67L3.79 2.67Q4.94 2.67 5.86 3.25L5.86 3.25L5.86 3.25Q6.78 3.83 7.05 5.31L7.05 5.31L5.28 5.98L5.28 5.98Q5.14 5.26 4.81 4.89L4.81 4.89L4.81 4.89Q4.48 4.52 3.88 4.52L3.88 4.52L3.88 4.52Q3.38 4.52 3.12 4.79L3.12 4.79L3.12 4.79Q2.86 5.05 2.86 5.46L2.86 5.46L2.86 5.46Q2.86 5.77 3.05 6.01L3.05 6.01L3.05 6.01Q3.24 6.25 3.54 6.44L3.54 6.44L3.54 6.44Q3.83 6.62 4.36 6.90L4.36 6.90L4.36 6.90Q4.87 7.17 5.13 7.31L5.13 7.31L5.13 7.31Q5.74 7.67 6.20 8.07L6.20 8.07L6.20 8.07Q6.65 8.46 6.97 9.10L6.97 9.10L6.97 9.10Q7.28 9.73 7.28 10.62L7.28 10.62L7.28 10.62Q7.28 11.64 6.88 12.39L6.88 12.39L6.88 12.39Q6.49 13.13 5.74 13.53L5.74 13.53L5.74 13.53Q4.98 13.93 3.95 13.93L3.95 13.93ZM16.17 5.63L18.54 5.63L17.01 13.78L14.12 13.78L13.21 8.31L13.10 8.31L12.24 13.82L9.36 13.82L7.85 5.63L10.21 5.63L10.90 11.81L12.23 5.63L14.14 5.63L15.44 11.89L16.17 5.63ZM19.53 4.60L19.53 2.80L21.85 2.80L21.85 4.60L19.53 4.60ZM19.51 13.78L19.51 5.63L21.85 5.63L21.85 13.78L19.51 13.78ZM23.75 13.78L23.75 7.14L22.76 7.14L22.76 5.63L23.78 5.63L23.78 5.09L23.78 5.09Q23.78 4.05 24.30 3.42L24.30 3.42L24.30 3.42Q24.83 2.80 25.83 2.80L25.83 2.80L27.28 2.80L27.28 4.31L26.64 4.31L26.64 4.31Q26.30 4.31 26.14 4.52L26.14 4.52L26.14 4.52Q25.98 4.72 25.98 5.07L25.98 5.07L25.98 5.63L27.28 5.63L27.28 7.14L26.09 7.14L26.09 13.78L23.75 13.78ZM30.43 13.78L30.43 13.78Q29.64 13.78 29.17 13.52L29.17 13.52L29.17 13.52Q28.70 13.25 28.49 12.70L28.49 12.70L28.49 12.70Q28.28 12.14 28.28 11.23L28.28 11.23L28.28 7.14L27.43 7.14L27.43 5.63L28.46 5.63L28.94 3.76L30.60 3.76L30.60 5.63L32.04 5.63L32.04 7.14L30.60 7.14L30.60 10.66L30.60 10.66Q30.60 11.22 30.68 11.49L30.68 11.49L30.68 11.49Q30.75 11.76 30.95 11.87L30.95 11.87L30.95 11.87Q31.14 11.97 31.55 11.97L31.55 11.97L32.03 11.97L32.03 13.78L30.43 13.78ZM39.94 13.94L39.94 13.94Q38.49 13.94 37.60 13.17L37.60 13.17L37.60 13.17Q36.71 12.41 36.32 11.14L36.32 11.14L36.32 11.14Q35.94 9.88 35.94 8.29L35.94 8.29L35.94 8.29Q35.94 6.70 36.32 5.43L36.32 5.43L36.32 5.43Q36.70 4.17 37.59 3.40L37.59 3.40L37.59 3.40Q38.48 2.63 39.94 2.63L39.94 2.63L39.94 2.63Q41.43 2.63 42.39 3.46L42.39 3.46L42.39 3.46Q43.34 4.29 43.61 5.90L43.61 5.90L41.59 6.44L41.59 6.44Q41.45 5.57 41.07 5.12L41.07 5.12L41.07 5.12Q40.69 4.66 40.00 4.66L40.00 4.66L40.00 4.66Q39.10 4.66 38.69 5.58L38.69 5.58L38.69 5.58Q38.29 6.49 38.29 8.23L38.29 8.23L38.29 8.23Q38.29 11.91 40.00 11.91L40.00 11.91L40.00 11.91Q40.67 11.91 41.06 11.43L41.06 11.43L41.06 11.43Q41.45 10.94 41.59 10.08L41.59 10.08L43.63 10.66L43.63 10.66Q43.35 12.26 42.39 13.10L42.39 13.10L42.39 13.10Q41.43 13.94 39.94 13.94L39.94 13.94ZM44.75 13.78L44.75 2.80L47.02 2.80L47.02 6.87L47.12 6.87L47.12 6.87Q47.41 6.21 47.93 5.84L47.93 5.84L47.93 5.84Q48.45 5.48 49.18 5.48L49.18 5.48L49.18 5.48Q49.85 5.48 50.37 5.82L50.37 5.82L50.37 5.82Q50.89 6.17 51.17 6.81L51.17 6.81L51.17 6.81Q51.46 7.44 51.46 8.29L51.46 8.29L51.46 13.78L49.14 13.78L49.14 8.64L49.14 8.64Q49.14 7.98 48.90 7.67L48.90 7.67L48.90 7.67Q48.67 7.37 48.21 7.37L48.21 7.37L48.21 7.37Q47.69 7.37 47.39 7.78L47.39 7.78L47.39 7.78Q47.09 8.18 47.09 8.90L47.09 8.90L47.09 13.78L44.75 13.78ZM55.56 5.48L55.56 5.48Q57.03 5.48 57.85 6.17L57.85 6.17L57.85 6.17Q58.67 6.86 58.67 8.34L58.67 8.34L58.67 13.78L56.67 13.78L56.56 12.62L56.44 12.62L56.44 12.62Q56.28 13.12 55.95 13.42L55.95 13.42L55.95 13.42Q55.61 13.71 55.23 13.84L55.23 13.84L55.23 13.84Q54.85 13.96 54.51 13.96L54.51 13.96L54.51 13.96Q53.87 13.96 53.40 13.69L53.40 13.69L53.40 13.69Q52.92 13.43 52.66 12.94L52.66 12.94L52.66 12.94Q52.40 12.46 52.40 11.81L52.40 11.81L52.40 11.81Q52.40 11.00 52.74 10.42L52.74 10.42L52.74 10.42Q53.07 9.85 53.73 9.44L53.73 9.44L53.73 9.44Q54.72 8.82 56.49 8.52L56.49 8.52L56.51 8.41L56.51 8.41Q56.53 8.25 56.53 8.12L56.53 8.12L56.53 8.12Q56.53 7.12 55.51 7.12L55.51 7.12L55.51 7.12Q55.01 7.12 54.70 7.43L54.70 7.43L54.70 7.43Q54.39 7.75 54.25 8.26L54.25 8.26L52.51 7.59L52.51 7.59Q52.77 6.54 53.59 6.01L53.59 6.01L53.59 6.01Q54.40 5.48 55.56 5.48L55.56 5.48ZM55.43 12.30L55.43 12.30Q55.75 12.26 56.01 12.03L56.01 12.03L56.01 12.03Q56.27 11.80 56.45 11.44L56.45 11.44L56.45 9.99L56.45 9.99Q55.78 10.09 55.25 10.45L55.25 10.45L55.25 10.45Q54.56 10.90 54.56 11.53L54.56 11.53L54.56 11.53Q54.56 11.87 54.78 12.09L54.78 12.09L54.78 12.09Q55.00 12.31 55.30 12.31L55.30 12.31L55.30 12.31Q55.34 12.31 55.43 12.30L55.43 12.30ZM60.18 4.60L60.18 2.80L62.49 2.80L62.49 4.60L60.18 4.60ZM60.16 13.78L60.16 5.63L62.49 5.63L62.49 13.78L60.16 13.78ZM64.13 13.78L64.13 5.63L66.29 5.63L66.40 6.87L66.50 6.87L66.50 6.87Q66.79 6.21 67.31 5.84L67.31 5.84L67.31 5.84Q67.83 5.48 68.55 5.48L68.55 5.48L68.55 5.48Q69.22 5.48 69.74 5.82L69.74 5.82L69.74 5.82Q70.26 6.17 70.55 6.81L70.55 6.81L70.55 6.81Q70.83 7.44 70.83 8.29L70.83 8.29L70.83 13.78L68.52 13.78L68.52 8.53L68.52 8.53Q68.52 7.87 68.28 7.57L68.28 7.57L68.28 7.57Q68.05 7.27 67.58 7.27L67.58 7.27L67.58 7.27Q67.06 7.27 66.76 7.67L66.76 7.67L66.76 7.67Q66.47 8.07 66.47 8.79L66.47 8.79L66.47 13.78L64.13 13.78Z"></path></g><defs data-v-fde0c5aa=""><!----></defs><g data-v-fde0c5aa="" id="21f4e090-b89b-48dc-b06d-5c473be1673f" stroke="none" fill="#00A3DD" transform="matrix(2.6115248051095517,0,0,2.6115248051095517,108.21560311824717,78.32340467737076)"><path d="M15.965 16.258l.707-.707 10.39 10.39-.707.707z"></path><path d="M4.935 26.357L26.018 5.274l.707.707L5.642 27.065z"></path><path d="M31 1v4.194h-4.194V1H31m1-1h-6.194v6.194H32V0zM31 26.806V31h-4.194v-4.194H31m1-1h-6.194V32H32v-6.194zM5.194 26.806V31H1v-4.194h4.194m1-1H0V32h6.194v-6.194z"></path></g><!----></svg>