<svg width="18" height="18" viewBox="0 0 18 18" fill="none" xmlns="http://www.w3.org/2000/svg">
<path fill-rule="evenodd" clip-rule="evenodd" d="M12.5833 11.5677C13.5 10.3281 14 8.82293 14 7.22918C14 3.33334 11 0.145844 7.33333 0.145844C3.66666 0.145844 0.666664 3.33334 0.666664 7.22918C0.666664 11.125 3.66666 14.3125 7.33333 14.3125C8.83333 14.3125 10.3333 13.7813 11.4167 12.8073L15.9167 17.5886L17.0833 16.349L12.5833 11.5677ZM7.33333 12.5417C4.58333 12.5417 2.33333 10.1511 2.33333 7.22918C2.33333 4.3073 4.58333 1.91668 7.33333 1.91668C10.0833 1.91668 12.3333 4.3073 12.3333 7.22918C12.3333 10.1511 10.0833 12.5417 7.33333 12.5417Z" fill="#4D4D4D"/>
</svg>
